<?xml version="1.0" encoding="utf-8"?>
<!-- Generator: Adobe Illustrator 16.0.0, SVG Export Plug-In . SVG Version: 6.00 Build 0)  -->
<!DOCTYPE svg PUBLIC "-//W3C//DTD SVG 1.1//EN" "http://www.w3.org/Graphics/SVG/1.1/DTD/svg11.dtd">
<svg version="1.1" id="Layer_1" xmlns="http://www.w3.org/2000/svg" xmlns:xlink="http://www.w3.org/1999/xlink" x="0px" y="0px"
	 width="32px" height="24px" viewBox="0 0 32 24" enable-background="new 0 0 32 24" xml:space="preserve">
<g>
	<rect x="-0.06" fill="#DE2910" width="32.06" height="24"/>
	<path fill="#FFFFFF" d="M15.969,11.997c-3.75-1.78-2.088-7.263,1.499-6.988c-0.726,0.42-0.831,1.201-0.416,1.925
		c0.464,0.809-0.044,2.114-0.67,2.43C15.351,9.885,15.145,11.272,15.969,11.997z"/>
	<polygon fill="#DE2910" points="15.766,8.038 15.556,8.409 15.479,7.975 15.099,7.866 15.441,7.65 15.418,7.209 15.706,7.51 
		16.071,7.348 15.906,7.749 16.156,8.089 	"/>
	<path fill="#DE2910" d="M15.99,11.95c-0.453-0.261-0.819-0.805-0.979-1.457c-0.181-0.747-0.077-1.55,0.288-2.202l-0.079-0.055
		c-0.378,0.677-0.488,1.508-0.298,2.284c0.168,0.69,0.542,1.245,1.025,1.522L15.99,11.95z"/>
	<path fill="#FFFFFF" d="M15.973,11.998c0.349-4.555,5.507-4.474,6.381-0.56c-0.578-0.645-1.272-0.517-1.757,0.15
		c-0.544,0.745-1.804,0.608-2.267,0.036C17.57,10.685,16.331,10.894,15.973,11.998z"/>
	<polygon fill="#DE2910" points="19.264,10.557 18.884,10.446 19.227,10.232 19.203,9.792 19.491,10.09 19.856,9.93 19.691,10.329 
		19.941,10.669 19.552,10.618 19.341,10.989 	"/>
	<path fill="#DE2910" d="M16.019,12.005c0.081-0.565,0.43-1.124,0.932-1.495c0.576-0.425,1.288-0.562,1.953-0.373l0.023-0.1
		c-0.69-0.195-1.429-0.056-2.027,0.387c-0.531,0.393-0.886,0.963-0.973,1.566L16.019,12.005z"/>
	<path fill="#FFFFFF" d="M15.973,12.002c3.964-1.035,5.491,4.498,2.445,6.643c0.368-0.817,0.045-1.519-0.67-1.832
		c-0.799-0.349-1.071-1.738-0.73-2.409C17.579,13.303,17.019,12.043,15.973,12.002z"/>
	<polygon fill="#DE2910" points="18.21,15.071 18.186,14.632 18.474,14.931 18.84,14.771 18.675,15.169 18.925,15.51 18.535,15.458 
		18.324,15.829 18.247,15.397 17.868,15.287 	"/>
	<path fill="#DE2910" d="M15.98,12.054c0.503-0.088,1.084,0.11,1.554,0.532c0.538,0.483,0.874,1.203,0.92,1.972l0.093-0.007
		c-0.048-0.799-0.396-1.543-0.955-2.046c-0.497-0.446-1.089-0.648-1.626-0.555L15.98,12.054z"/>
	<path fill="#FFFFFF" d="M15.969,12.003c2.102,3.915-2.113,7.254-4.87,4.665c0.806,0.14,1.3-0.422,1.343-1.282
		c0.049-0.961,1.141-1.682,1.814-1.524C15.364,14.12,16.258,13.134,15.969,12.003z"/>
	<polygon fill="#DE2910" points="14.061,15.341 14.426,15.18 14.261,15.581 14.511,15.919 14.121,15.867 13.91,16.241 
		13.834,15.807 13.454,15.696 13.796,15.482 13.772,15.041 	"/>
	<path fill="#DE2910" d="M15.928,12.028c0.23,0.509,0.241,1.192,0.029,1.825c-0.244,0.724-0.749,1.305-1.386,1.59l0.035,0.097
		c0.661-0.297,1.185-0.898,1.438-1.65c0.225-0.669,0.213-1.363-0.032-1.909L15.928,12.028z"/>
	<path fill="#FFFFFF" d="M15.967,12c-2.667,3.454-6.797-0.016-5.456-3.759c0.131,0.904,0.759,1.256,1.5,1.039
		c0.83-0.245,1.777,0.698,1.852,1.466C13.986,12.009,15.099,12.656,15.967,12z"/>
	<polygon fill="#DE2910" points="12.551,10.993 12.8,11.333 12.41,11.281 12.199,11.653 12.123,11.221 11.743,11.11 12.085,10.896 
		12.061,10.455 12.35,10.754 12.714,10.593 	"/>
	<path fill="#DE2910" d="M15.934,11.964c-0.361,0.402-0.936,0.625-1.537,0.595c-0.689-0.037-1.336-0.396-1.775-0.989l-0.071,0.067
		c0.456,0.613,1.128,0.987,1.843,1.025c0.636,0.032,1.221-0.194,1.606-0.624L15.934,11.964z"/>
</g>
</svg>
