<?xml version="1.0" encoding="utf-8"?>
<!-- Generator: Adobe Illustrator 16.0.0, SVG Export Plug-In . SVG Version: 6.00 Build 0)  -->
<!DOCTYPE svg PUBLIC "-//W3C//DTD SVG 1.1//EN" "http://www.w3.org/Graphics/SVG/1.1/DTD/svg11.dtd">
<svg version="1.1" id="Layer_1" xmlns="http://www.w3.org/2000/svg" xmlns:xlink="http://www.w3.org/1999/xlink" x="0px" y="0px"
	 width="32px" height="24px" viewBox="0 0 32 24" enable-background="new 0 0 32 24" xml:space="preserve">
<g>
	<rect y="0.05" fill="#F89939" width="32.02" height="23.95"/>
	<rect y="8.033" fill="#FFFFFF" width="32.02" height="7.983"/>
	<rect y="16.017" fill="#1E8943" width="32.02" height="7.983"/>
	<ellipse fill="#2A2C7A" cx="16.01" cy="12.025" rx="2.847" ry="3.194"/>
	<ellipse fill="#FFFFFF" cx="16.01" cy="12.025" rx="2.49" ry="2.794"/>
	<ellipse fill="#2A2C7A" cx="16.01" cy="12.025" rx="0.499" ry="0.559"/>
	<polygon fill="#2A2C7A" points="18.495,12.251 18.603,12.408 18.463,12.528 18.355,12.372 	"/>
	<polygon fill="#2A2C7A" points="16.01,14.819 16.096,13.143 16.01,12.344 15.924,13.143 	"/>
	<polygon fill="#2A2C7A" points="18.358,12.965 18.426,13.147 18.263,13.223 18.195,13.041 	"/>
	<polygon fill="#2A2C7A" points="15.365,14.724 15.834,13.129 15.936,12.333 15.669,13.08 	"/>
	<polygon fill="#2A2C7A" points="18.062,13.614 18.084,13.811 17.91,13.837 17.888,13.642 	"/>
	<polygon fill="#2A2C7A" points="14.765,14.444 15.586,13.041 15.868,12.301 15.438,12.945 	"/>
	<polygon fill="#2A2C7A" points="17.625,14.157 17.602,14.353 17.428,14.326 17.45,14.131 	"/>
	<polygon fill="#2A2C7A" points="14.249,14.001 15.366,12.883 15.809,12.25 15.245,12.748 	"/>
	<polygon fill="#2A2C7A" points="17.078,14.553 17.011,14.735 16.848,14.66 16.916,14.478 	"/>
	<polygon fill="#2A2C7A" points="13.853,13.422 15.19,12.667 15.764,12.185 15.104,12.5 	"/>
	<polygon fill="#2A2C7A" points="16.458,14.777 16.352,14.934 16.211,14.813 16.319,14.656 	"/>
	<polygon fill="#2A2C7A" points="13.604,12.748 15.07,12.407 15.735,12.107 15.026,12.222 	"/>
	<polygon fill="#2A2C7A" points="15.809,14.813 15.668,14.934 15.562,14.777 15.701,14.656 	"/>
	<polygon fill="#2A2C7A" points="13.52,12.025 15.014,12.121 15.726,12.025 15.014,11.929 	"/>
	<polygon fill="#2A2C7A" points="15.172,14.66 15.009,14.735 14.942,14.553 15.104,14.478 	"/>
	<polygon fill="#2A2C7A" points="13.604,11.302 15.026,11.828 15.735,11.942 15.07,11.643 	"/>
	<polygon fill="#2A2C7A" points="14.593,14.326 14.418,14.353 14.395,14.157 14.569,14.131 	"/>
	<polygon fill="#2A2C7A" points="13.853,10.627 15.104,11.549 15.764,11.865 15.19,11.383 	"/>
	<polygon fill="#2A2C7A" points="14.11,13.837 13.936,13.811 13.958,13.614 14.133,13.642 	"/>
	<polygon fill="#2A2C7A" points="14.249,10.049 15.245,11.302 15.809,11.799 15.366,11.167 	"/>
	<polygon fill="#2A2C7A" points="13.757,13.223 13.594,13.147 13.661,12.965 13.824,13.041 	"/>
	<polygon fill="#2A2C7A" points="14.765,9.605 15.438,11.105 15.868,11.749 15.586,11.009 	"/>
	<polygon fill="#2A2C7A" points="13.557,12.528 13.417,12.408 13.524,12.251 13.665,12.372 	"/>
	<polygon fill="#2A2C7A" points="15.365,9.326 15.669,10.97 15.936,11.717 15.834,10.92 	"/>
	<polygon fill="#2A2C7A" points="13.524,11.799 13.417,11.642 13.557,11.522 13.665,11.678 	"/>
	<polygon fill="#2A2C7A" points="16.01,9.231 15.924,10.907 16.01,11.706 16.096,10.907 	"/>
	<polygon fill="#2A2C7A" points="13.661,11.084 13.594,10.902 13.757,10.827 13.824,11.009 	"/>
	<polygon fill="#2A2C7A" points="16.655,9.326 16.185,10.92 16.083,11.717 16.351,10.97 	"/>
	<polygon fill="#2A2C7A" points="13.958,10.435 13.936,10.239 14.11,10.213 14.133,10.409 	"/>
	<polygon fill="#2A2C7A" points="17.256,9.605 16.435,11.009 16.152,11.749 16.582,11.105 	"/>
	<polygon fill="#2A2C7A" points="14.395,9.893 14.418,9.697 14.593,9.723 14.569,9.919 	"/>
	<polygon fill="#2A2C7A" points="17.771,10.049 16.654,11.167 16.211,11.799 16.775,11.302 	"/>
	<polygon fill="#2A2C7A" points="14.942,9.497 15.009,9.314 15.172,9.39 15.104,9.573 	"/>
	<polygon fill="#2A2C7A" points="18.167,10.627 16.83,11.383 16.256,11.865 16.916,11.549 	"/>
	<polygon fill="#2A2C7A" points="15.562,9.273 15.668,9.116 15.809,9.236 15.701,9.394 	"/>
	<polygon fill="#2A2C7A" points="18.415,11.302 16.95,11.643 16.285,11.942 16.995,11.828 	"/>
	<polygon fill="#2A2C7A" points="16.211,9.236 16.352,9.116 16.458,9.273 16.319,9.394 	"/>
	<polygon fill="#2A2C7A" points="18.5,12.025 17.006,11.929 16.294,12.025 17.006,12.121 	"/>
	<polygon fill="#2A2C7A" points="16.848,9.39 17.011,9.314 17.078,9.497 16.916,9.573 	"/>
	<polygon fill="#2A2C7A" points="18.415,12.748 16.995,12.222 16.285,12.107 16.95,12.407 	"/>
	<polygon fill="#2A2C7A" points="17.428,9.723 17.602,9.697 17.625,9.893 17.45,9.919 	"/>
	<polygon fill="#2A2C7A" points="18.167,13.422 16.916,12.5 16.256,12.185 16.83,12.667 	"/>
	<polygon fill="#2A2C7A" points="17.91,10.213 18.084,10.239 18.062,10.435 17.888,10.409 	"/>
	<polygon fill="#2A2C7A" points="17.771,14.001 16.775,12.748 16.211,12.25 16.654,12.883 	"/>
	<polygon fill="#2A2C7A" points="18.263,10.827 18.426,10.902 18.358,11.084 18.195,11.009 	"/>
	<polygon fill="#2A2C7A" points="17.256,14.444 16.582,12.945 16.152,12.301 16.435,13.041 	"/>
	<polygon fill="#2A2C7A" points="18.463,11.522 18.603,11.642 18.495,11.799 18.355,11.678 	"/>
	<polygon fill="#2A2C7A" points="16.655,14.724 16.351,13.08 16.083,12.333 16.185,13.129 	"/>
</g>
</svg>
