<?xml version="1.0" encoding="utf-8"?>
<!-- Generator: Adobe Illustrator 16.0.0, SVG Export Plug-In . SVG Version: 6.00 Build 0)  -->
<!DOCTYPE svg PUBLIC "-//W3C//DTD SVG 1.1//EN" "http://www.w3.org/Graphics/SVG/1.1/DTD/svg11.dtd">
<svg version="1.1" id="Layer_1" xmlns="http://www.w3.org/2000/svg" xmlns:xlink="http://www.w3.org/1999/xlink" x="0px" y="0px"
	 width="32px" height="24px" viewBox="0 0 32 24" enable-background="new 0 0 32 24" xml:space="preserve">
<path fill-rule="evenodd" clip-rule="evenodd" fill="#283475" d="M32.016,24.017c-10.641,0-21.281,0-31.921,0.002
	c-0.061,0-0.08-0.008-0.08-0.076c0.002-3.976,0.002-7.95,0.002-11.926c0.007-0.007,0.016-0.013,0.025-0.018
	c0.063-0.014,0.126-0.017,0.19-0.017c0.322,0.002,0.644-0.003,0.965,0.003c0.188-0.002,0.377,0.002,0.566-0.004
	c0.048-0.001,0.082-0.037,0.118-0.064c0.674-0.504,1.347-1.01,2.021-1.515C4.784,9.74,5.667,9.079,6.549,8.417
	c0.039-0.029,0.079-0.08,0.133-0.052C6.736,8.392,6.72,8.454,6.72,8.503c0.001,1.106,0,2.211,0,3.317c0,0.027,0.002,0.054,0,0.08
	c-0.005,0.062,0.021,0.085,0.083,0.085c0.144-0.002,0.288-0.003,0.432,0.002c0.273-0.01,0.547-0.004,0.821-0.004
	c0.247,0,0.494-0.006,0.741,0.004c0.141-0.005,0.282-0.002,0.423-0.003c0.084-0.001,0.089-0.007,0.091-0.092
	c0-0.029,0-0.059,0-0.088c0-1.099,0-2.197,0-3.295c0-0.051-0.019-0.117,0.041-0.144c0.054-0.025,0.094,0.025,0.133,0.055
	c1.544,1.158,3.089,2.315,4.631,3.475c0.085,0.064,0.17,0.093,0.278,0.093c0.509-0.003,1.019-0.006,1.528,0.002
	c0.021,0,0.036-0.003,0.049-0.019c0.017-0.03,0.009-0.063,0.009-0.094c0.001-0.247,0-0.495,0-0.742
	c0.004-0.138,0.003-0.276-0.002-0.414c-0.002-0.053-0.05-0.073-0.085-0.1c-0.345-0.26-0.69-0.518-1.035-0.777
	c-0.767-0.576-1.535-1.15-2.301-1.727c-0.037-0.027-0.099-0.051-0.081-0.106c0.02-0.058,0.086-0.041,0.135-0.041
	c1.065,0,2.131,0,3.197,0c0.029,0,0.059-0.002,0.088,0c0.067,0.005,0.087-0.027,0.087-0.09c0-0.227-0.004-0.453,0.002-0.679
	c-0.005-0.029-0.004-0.059-0.004-0.088c0-0.729,0-1.459,0-2.189c0-0.029,0-0.059,0.004-0.087c-0.006-0.216-0.001-0.432-0.003-0.647
	c0-0.138,0-0.138-0.135-0.138c-1.066,0-2.132,0-3.198,0c-0.038,0-0.075,0.002-0.112-0.003c-0.024-0.004-0.05-0.009-0.058-0.035
	c-0.008-0.026,0.011-0.046,0.028-0.062c0.06-0.053,0.125-0.099,0.189-0.146c1.053-0.79,2.105-1.581,3.16-2.368
	c0.09-0.066,0.131-0.135,0.128-0.251c-0.008-0.344-0.003-0.688-0.003-1.032c0-0.047-0.003-0.097,0.033-0.136c5.333,0,10.667,0,16,0
	c0.016,0.027,0.008,0.058,0.008,0.086c0.001,7.942,0.001,15.885,0,23.827C32.023,23.959,32.031,23.989,32.016,24.017z"/>
<path fill-rule="evenodd" clip-rule="evenodd" fill="#CC222C" d="M8.816,12.014c-0.533,0-1.067,0-1.6,0
	c-0.028-0.022-0.033-0.053-0.033-0.086c0-0.04-0.001-0.08-0.001-0.12c0-1.464,0-2.927,0-4.391c0-0.166,0-0.166-0.168-0.166
	c-2.274,0-4.548,0-6.823-0.001c-0.059,0-0.124,0.019-0.174-0.033c0-0.8,0-1.6,0-2.4C0.04,4.791,0.069,4.784,0.103,4.784
	c0.042,0,0.085-0.001,0.128-0.001c2.26,0,4.52,0,6.779,0c0.172,0,0.172,0,0.172-0.17c0-1.479,0-2.958,0.001-4.437
	c0-0.054-0.015-0.114,0.033-0.158c0.533,0,1.067,0,1.6,0c0.035,0.029,0.034,0.07,0.034,0.11c0.001,0.187,0,0.374,0,0.56
	c0,1.312,0,2.624,0,3.935c0,0.16,0,0.16,0.158,0.16c2.28,0,4.559,0,6.839,0.001c0.056,0,0.119-0.019,0.166,0.033
	c0.001,0.457,0.002,0.915,0.002,1.372c0,0.343-0.001,0.686-0.002,1.028C15.992,7.245,15.96,7.25,15.928,7.25
	c-0.043,0.001-0.085,0.001-0.128,0.001c-2.258,0-4.516,0-6.773,0c-0.176,0-0.176,0-0.176,0.175c0,1.477,0,2.954-0.001,4.43
	C8.85,11.91,8.867,11.97,8.816,12.014z"/>
<path fill-rule="evenodd" clip-rule="evenodd" fill="#FFFFFF" d="M7.216,0.017c0,1.57,0,3.141,0.002,4.711
	c0,0.073-0.018,0.09-0.09,0.09C4.757,4.816,2.387,4.817,0.017,4.817c0-0.267,0-0.533,0-0.8C0.057,3.974,0.11,3.985,0.16,3.985
	c1.034,0,2.068,0,3.103,0c0.065,0,0.131,0.001,0.203,0C2.949,3.597,2.438,3.213,1.926,2.83C1.325,2.379,0.724,1.928,0.122,1.478
	C0.079,1.445,0.039,1.412,0.017,1.361c0-0.144,0-0.288,0-0.432c0.03-0.028,0.059-0.014,0.087,0.002
	c0.03,0.018,0.057,0.04,0.084,0.061c1.297,0.973,2.594,1.945,3.89,2.918c0.07,0.052,0.139,0.078,0.227,0.077
	c0.314-0.004,0.628-0.002,0.947-0.001c-0.02-0.031-0.046-0.044-0.069-0.061c-1.685-1.265-3.37-2.528-5.054-3.792
	c-0.041-0.03-0.098-0.05-0.096-0.116c0.597,0,1.194,0,1.792,0c0.064,0.021,0.119,0.056,0.173,0.096
	c1.517,1.14,3.036,2.277,4.554,3.416C6.58,3.551,6.605,3.58,6.645,3.587C6.666,3.555,6.656,3.52,6.656,3.486
	c0-1.109,0-2.217,0.001-3.326c0-0.049-0.011-0.103,0.032-0.143C6.864,0.017,7.041,0.017,7.216,0.017z"/>
<path fill-rule="evenodd" clip-rule="evenodd" fill="#FFFFFF" d="M16.014,4.817c-2.367,0-4.734,0-7.102,0.002
	c-0.083,0-0.098-0.021-0.098-0.1c0.002-1.567,0.002-3.135,0.002-4.702c0.176,0,0.352,0,0.528,0C9.387,0.058,9.376,0.111,9.376,0.16
	c0,0.912,0,1.823,0,2.734c0,0.203,0,0.405,0,0.608c0,0.028-0.006,0.058,0.009,0.085C9.428,3.58,9.453,3.551,9.482,3.529
	C11,2.391,12.519,1.253,14.036,0.113c0.054-0.04,0.108-0.076,0.173-0.096c0.203,0,0.405,0,0.608,0
	c0.007,0.042-0.028,0.054-0.052,0.072c-0.322,0.242-0.644,0.484-0.965,0.725c-1.391,1.042-2.782,2.085-4.172,3.129
	c-0.015,0.011-0.031,0.02-0.044,0.043c0.169,0.001,0.331,0,0.493,0.001c0.155,0,0.31-0.003,0.464,0.001
	c0.091,0.003,0.164-0.025,0.235-0.08c0.837-0.63,1.676-1.258,2.514-1.887c0.853-0.64,1.707-1.279,2.559-1.92
	C15.895,0.065,15.944,0.036,16,0.017c0.005,0,0.011,0,0.016,0c0,0.392-0.007,0.784,0.004,1.175c0.003,0.126-0.043,0.197-0.137,0.266
	C15.521,1.726,15.163,2,14.802,2.269c-0.311,0.232-0.624,0.459-0.934,0.692c-0.352,0.264-0.701,0.532-1.052,0.797
	c-0.096,0.072-0.194,0.141-0.292,0.21c-0.016,0.011-0.016,0.025-0.021,0.044c0.041,0,0.08,0,0.119,0
	c1.104,0,2.207,0.001,3.311-0.001c0.07,0,0.089,0.015,0.087,0.086C16.012,4.337,16.015,4.577,16.014,4.817z"/>
<path fill-rule="evenodd" clip-rule="evenodd" fill="#FFFFFF" d="M0.017,7.217c2.367,0,4.734,0,7.102-0.001
	c0.076,0,0.101,0.012,0.101,0.096c-0.003,1.567-0.002,3.135-0.002,4.703c-0.154,0.001-0.309-0.001-0.463,0.004
	c-0.057,0.002-0.07-0.015-0.07-0.07c0.002-0.421,0.001-0.843,0.001-1.264c0-0.747,0-1.493-0.001-2.24
	c0-0.024,0.017-0.059-0.014-0.071c-0.018-0.007-0.038,0.02-0.056,0.034C6.39,8.577,6.164,8.742,5.939,8.91
	c-0.267,0.2-0.531,0.403-0.797,0.603C4.897,9.697,4.65,9.877,4.405,10.061c-0.246,0.185-0.49,0.373-0.736,0.557
	c-0.245,0.184-0.492,0.364-0.737,0.547c-0.245,0.183-0.487,0.367-0.731,0.551c-0.128,0.097-0.256,0.193-0.384,0.291
	c-0.014,0.011-0.029,0.009-0.045,0.009c-0.184-0.001-0.368-0.002-0.552-0.003c-0.031-0.031,0.001-0.047,0.018-0.063
	c0.024-0.025,0.054-0.043,0.082-0.064c1.688-1.265,3.375-2.531,5.062-3.797c0.021-0.016,0.045-0.027,0.063-0.057
	c-0.126-0.001-0.249,0-0.371,0c-0.194,0-0.389,0.003-0.584-0.001C5.409,8.028,5.344,8.053,5.279,8.102
	c-1.249,0.939-2.5,1.876-3.75,2.813c-0.448,0.336-0.896,0.672-1.344,1.008c-0.047,0.036-0.095,0.068-0.15,0.089
	c-0.006,0.001-0.013,0.002-0.019,0.003c0-0.448,0-0.896,0-1.344c0.014-0.059,0.061-0.091,0.105-0.125
	C1.208,9.735,2.293,8.92,3.379,8.106c0.026-0.019,0.052-0.038,0.083-0.065C3.427,8.028,3.396,8.033,3.367,8.033
	c-1.069,0-2.138,0-3.208,0c-0.049,0-0.103,0.011-0.143-0.032C0.017,7.74,0.017,7.478,0.017,7.217z"/>
<path fill-rule="evenodd" clip-rule="evenodd" fill="#283476" d="M6.688,0.017C6.687,0.049,6.685,0.081,6.685,0.112
	c0,1.154,0,2.308,0,3.462c0,0.028,0,0.056,0,0.1c-0.32-0.243-0.626-0.478-0.935-0.71c-0.288-0.216-0.58-0.427-0.868-0.643
	C4.573,2.09,4.269,1.855,3.961,1.624C3.718,1.441,3.472,1.263,3.228,1.08C2.981,0.895,2.736,0.706,2.49,0.521
	C2.287,0.368,2.082,0.218,1.878,0.067c-0.02-0.014-0.036-0.033-0.054-0.05C3.446,0.017,5.067,0.017,6.688,0.017z"/>
<path fill-rule="evenodd" clip-rule="evenodd" fill="#283476" d="M14.208,0.017c-0.119,0.11-0.255,0.197-0.383,0.295
	c-0.245,0.188-0.491,0.375-0.738,0.56c-0.203,0.152-0.409,0.301-0.612,0.454c-0.29,0.217-0.576,0.438-0.866,0.655
	c-0.311,0.232-0.625,0.46-0.936,0.693C10.279,2.97,9.886,3.27,9.492,3.568C9.45,3.6,9.405,3.628,9.358,3.661
	c-0.02-0.022-0.009-0.052-0.009-0.079c-0.001-1.16-0.001-2.319-0.001-3.478c0-0.029-0.002-0.058-0.004-0.087
	C10.966,0.017,12.587,0.017,14.208,0.017z"/>
<path fill-rule="evenodd" clip-rule="evenodd" fill="#CC222C" d="M16,0.017c-0.17,0.13-0.339,0.26-0.51,0.389
	c-0.248,0.188-0.496,0.376-0.745,0.563c-0.221,0.166-0.443,0.329-0.664,0.494c-0.249,0.187-0.496,0.376-0.745,0.562
	c-0.246,0.184-0.493,0.365-0.738,0.549c-0.267,0.2-0.532,0.404-0.799,0.604c-0.245,0.184-0.492,0.365-0.739,0.548
	c-0.113,0.084-0.229,0.164-0.337,0.253c-0.033,0.027-0.063,0.033-0.1,0.033c-0.365,0-0.73,0-1.099,0
	c-0.004-0.06,0.056-0.066,0.083-0.088c0.4-0.307,0.804-0.609,1.208-0.912c0.331-0.247,0.664-0.491,0.994-0.738
	c0.309-0.232,0.615-0.469,0.924-0.701c0.289-0.217,0.583-0.428,0.872-0.645c0.307-0.23,0.611-0.465,0.917-0.697
	c0.096-0.073,0.194-0.143,0.292-0.214C15.211,0.017,15.605,0.017,16,0.017z"/>
<path fill-rule="evenodd" clip-rule="evenodd" fill="#283476" d="M0.017,8.001c0.117,0.001,0.234,0.002,0.352,0.002
	c1.029,0,2.057,0,3.086,0c0.029,0,0.057,0,0.086,0C3.542,8.009,3.545,8.014,3.548,8.02C3.455,8.09,3.361,8.161,3.268,8.231
	C3.021,8.418,2.775,8.604,2.528,8.79C2.328,8.941,2.125,9.089,1.924,9.24c-0.247,0.186-0.493,0.373-0.74,0.558
	c-0.201,0.151-0.403,0.299-0.604,0.45c-0.188,0.141-0.375,0.283-0.563,0.425C0.017,9.782,0.017,8.892,0.017,8.001z"/>
<path fill-rule="evenodd" clip-rule="evenodd" fill="#283476" d="M0.017,1.361c0.132,0.079,0.247,0.18,0.371,0.27
	c0.206,0.15,0.408,0.305,0.611,0.459C1.244,2.274,1.49,2.46,1.736,2.646c0.202,0.151,0.405,0.301,0.607,0.453
	C2.589,3.283,2.834,3.47,3.081,3.654C3.219,3.759,3.359,3.862,3.5,3.963C3.517,3.976,3.527,3.985,3.53,4.013
	c-0.028,0-0.055,0-0.083,0c-1.112,0-2.224,0-3.335,0c-0.032,0-0.064,0.002-0.096,0.004C0.017,3.132,0.017,2.246,0.017,1.361z"/>
<path fill-rule="evenodd" clip-rule="evenodd" fill="#CC222C" d="M0.033,0.017C0.173,0.143,0.331,0.247,0.48,0.361
	C0.726,0.549,0.972,0.735,1.219,0.92c0.221,0.166,0.443,0.329,0.664,0.495c0.249,0.187,0.497,0.376,0.746,0.563
	c0.246,0.184,0.494,0.364,0.739,0.548c0.288,0.216,0.573,0.436,0.86,0.651c0.246,0.184,0.493,0.366,0.739,0.548
	c0.109,0.081,0.217,0.162,0.327,0.242c0.012,0.009,0.021,0.018,0.019,0.031C5.309,4.023,5.288,4.011,5.275,4.011
	c-0.357,0.001-0.714,0-1.072,0.001C4.112,4.012,4.063,3.938,4,3.894C3.772,3.73,3.551,3.557,3.328,3.388
	C3.08,3.2,2.832,3.012,2.583,2.825C2.337,2.642,2.089,2.46,1.844,2.276C1.577,2.076,1.313,1.872,1.045,1.671
	C0.8,1.487,0.552,1.307,0.306,1.124C0.232,1.069,0.161,1.012,0.089,0.956c-0.021-0.017-0.044-0.03-0.072-0.026
	c0-0.286-0.001-0.571,0.001-0.857C0.019,0.056-0.007,0.025,0.033,0.017z"/>
<path fill-rule="evenodd" clip-rule="evenodd" fill="#FFFFFF" d="M8.816,12.014c0-1.57,0-3.14-0.002-4.709
	c0-0.074,0.02-0.089,0.091-0.089c2.37,0.002,4.739,0.001,7.108,0.001c0.001,0.245,0,0.49,0.004,0.735
	c0.001,0.063-0.036,0.051-0.071,0.051c-0.624,0-1.247,0-1.871,0c-0.498,0-0.997,0-1.495,0c-0.029,0-0.058,0-0.104,0
	c0.075,0.077,0.153,0.125,0.226,0.181c0.245,0.188,0.491,0.374,0.738,0.56c0.201,0.151,0.404,0.298,0.605,0.449
	c0.247,0.185,0.492,0.373,0.739,0.559c0.201,0.151,0.403,0.299,0.605,0.449c0.2,0.148,0.4,0.295,0.599,0.444
	c0.02,0.015,0.029,0.042,0.028,0.07c-0.003,0.133-0.003,0.266-0.004,0.399c-0.045,0.018-0.069-0.02-0.096-0.04
	c-0.764-0.571-1.527-1.145-2.291-1.717c-0.546-0.41-1.093-0.817-1.637-1.229c-0.089-0.067-0.18-0.102-0.294-0.099
	c-0.274,0.007-0.549,0.002-0.824,0.002c-0.028,0-0.058-0.005-0.091,0.008c0.023,0.032,0.056,0.05,0.084,0.072
	c1.684,1.264,3.369,2.527,5.052,3.791c0.037,0.028,0.097,0.043,0.084,0.111c-0.354,0.001-0.708,0.003-1.063,0.003
	c-0.219,0-0.438,0-0.656,0c-0.031,0-0.054-0.007-0.083-0.028c-0.407-0.302-0.811-0.607-1.215-0.914
	c-0.394-0.298-0.794-0.588-1.19-0.884c-0.426-0.318-0.852-0.638-1.277-0.958c-0.37-0.279-0.738-0.559-1.108-0.838
	c-0.014-0.011-0.038-0.025-0.048-0.02C9.335,8.386,9.349,8.416,9.349,8.438c-0.001,0.832-0.001,1.663-0.001,2.495
	c0,0.339-0.001,0.677,0.001,1.016c0,0.056-0.013,0.072-0.07,0.07C9.125,12.013,8.971,12.015,8.816,12.014z"/>
<path fill-rule="evenodd" clip-rule="evenodd" fill="#CC222C" d="M0.036,12.013c0.058-0.076,0.143-0.119,0.216-0.176
	c0.269-0.207,0.541-0.411,0.813-0.614c0.266-0.199,0.534-0.395,0.8-0.595c0.267-0.201,0.532-0.404,0.799-0.605
	c0.246-0.184,0.494-0.364,0.739-0.548C3.69,9.259,3.976,9.04,4.263,8.824C4.509,8.64,4.756,8.458,5.002,8.275
	C5.118,8.19,5.227,8.098,5.349,8.021c0.021-0.013,0.037-0.017,0.057-0.017c0.363,0,0.725,0,1.088,0c0.009,0,0.019,0.002,0.047,0.006
	C6.39,8.124,6.254,8.226,6.119,8.329c-0.247,0.186-0.493,0.373-0.74,0.558c-0.2,0.15-0.402,0.298-0.602,0.449
	C4.528,9.522,4.282,9.712,4.033,9.898C3.79,10.081,3.543,10.26,3.3,10.442c-0.29,0.217-0.577,0.438-0.866,0.655
	c-0.223,0.167-0.448,0.332-0.671,0.498c-0.18,0.134-0.36,0.268-0.54,0.403C1.22,12,1.222,12.008,1.221,12.013
	C0.826,12.013,0.431,12.013,0.036,12.013z"/>
<path fill-rule="evenodd" clip-rule="evenodd" fill="#CC222C" d="M16.001,12.013c-0.059-0.075-0.143-0.119-0.217-0.176
	c-0.269-0.207-0.54-0.411-0.812-0.614c-0.245-0.184-0.494-0.364-0.739-0.548c-0.288-0.216-0.572-0.435-0.86-0.651
	C13.129,9.84,12.88,9.66,12.635,9.476c-0.267-0.2-0.531-0.404-0.798-0.605c-0.246-0.184-0.493-0.364-0.739-0.547
	c-0.133-0.099-0.264-0.201-0.397-0.302c0.026-0.029,0.055-0.017,0.079-0.017c0.312-0.001,0.624,0.005,0.936-0.003
	C11.829,7.998,11.916,8.035,12,8.1c0.335,0.262,0.68,0.512,1.02,0.767c0.449,0.337,0.897,0.674,1.347,1.01
	c0.34,0.254,0.679,0.513,1.021,0.765c0.21,0.155,0.417,0.314,0.625,0.472c0.001,0.289,0.002,0.577,0.003,0.866
	C16.016,11.992,16.017,12.007,16.001,12.013z"/>
<path fill-rule="evenodd" clip-rule="evenodd" fill="#FFFFFF" d="M24.571,16.139c0.144,0.451,0.288,0.901,0.431,1.352
	c0.016,0.052,0.059,0.053,0.118,0.053c0.433-0.001,0.863-0.001,1.295-0.001c0.033,0.001,0.08-0.012,0.097,0.012
	c0.022,0.03-0.037,0.033-0.059,0.049c-0.355,0.266-0.711,0.532-1.073,0.794c-0.052,0.039-0.063,0.071-0.046,0.119
	c0.138,0.427,0.275,0.854,0.413,1.281c0.01,0.031,0.017,0.062,0.011,0.096c-0.384-0.28-0.768-0.559-1.146-0.84
	c-0.052-0.039-0.071-0.039-0.123-0.001c-0.362,0.27-0.73,0.534-1.096,0.802c-0.018,0.014-0.028,0.037-0.06,0.026
	c-0.044-0.015,0.003-0.03,0.007-0.045c0.095-0.292,0.188-0.585,0.284-0.877c0.047-0.147,0.093-0.296,0.143-0.442
	c0.017-0.048,0.006-0.08-0.048-0.119c-0.373-0.269-0.741-0.542-1.11-0.813c-0.014-0.01-0.037-0.016-0.022-0.031
	c0.018-0.02,0.05-0.01,0.075-0.011c0.419,0,0.84-0.003,1.259,0.002c0.119,0.002,0.168-0.016,0.192-0.1
	c0.133-0.437,0.277-0.87,0.417-1.306C24.543,16.129,24.557,16.129,24.571,16.139z"/>
<path fill-rule="evenodd" clip-rule="evenodd" fill="#FFFFFF" d="M22.753,4.199c0.44,0,0.855-0.002,1.27,0.001
	c0.085,0,0.113-0.016,0.131-0.072c0.125-0.404,0.257-0.806,0.406-1.21c0.042,0.13,0.085,0.259,0.126,0.389
	c0.09,0.28,0.183,0.559,0.267,0.84c0.016,0.053,0.058,0.053,0.116,0.053c0.396,0,0.791,0,1.188,0c0.022,0,0.045,0,0.1,0
	c-0.135,0.1-0.249,0.187-0.366,0.273c-0.232,0.171-0.463,0.343-0.698,0.513c-0.037,0.027-0.052,0.048-0.039,0.088
	c0.132,0.395,0.259,0.792,0.386,1.188c0.006,0.018,0.003,0.037,0.006,0.069c-0.184-0.135-0.357-0.26-0.53-0.387
	c-0.162-0.119-0.326-0.238-0.484-0.361c-0.058-0.045-0.093-0.048-0.155-0.001c-0.313,0.236-0.631,0.469-0.946,0.703
	c-0.017,0.012-0.032,0.025-0.073,0.019c0.034-0.11,0.067-0.221,0.102-0.331c0.096-0.3,0.191-0.601,0.292-0.901
	c0.013-0.036,0.003-0.054-0.035-0.082c-0.326-0.235-0.646-0.474-0.969-0.711C22.816,4.256,22.792,4.233,22.753,4.199z"/>
<path fill-rule="evenodd" clip-rule="evenodd" fill="#FEFEFF" d="M18.95,11.921c0.094-0.291,0.18-0.56,0.267-0.828
	c0.046-0.145,0.091-0.29,0.139-0.435c0.014-0.039,0.009-0.064-0.037-0.098c-0.332-0.238-0.657-0.48-0.986-0.72
	c-0.016-0.012-0.012-0.03-0.033-0.047c0.255,0,0.511,0,0.764,0c0.16,0,0.317-0.004,0.476,0.002c0.092,0.003,0.106-0.028,0.122-0.077
	c0.128-0.406,0.26-0.813,0.395-1.23c0.052,0.065,0.055,0.129,0.075,0.188c0.114,0.349,0.228,0.699,0.335,1.049
	c0.018,0.057,0.051,0.07,0.132,0.069c0.407-0.003,0.814-0.001,1.248-0.001c-0.117,0.088-0.22,0.167-0.326,0.244
	c-0.243,0.178-0.485,0.357-0.731,0.533c-0.043,0.03-0.031,0.056-0.021,0.086c0.127,0.394,0.255,0.787,0.383,1.18
	c0.006,0.02,0.007,0.042,0.012,0.075c-0.373-0.274-0.734-0.538-1.1-0.807C19.699,11.372,19.338,11.637,18.95,11.921z"/>
<path fill-rule="evenodd" clip-rule="evenodd" fill="#FFFFFF" d="M26.641,8.404c0.372,0,0.734-0.001,1.097,0.001
	c0.077,0,0.109-0.013,0.125-0.066c0.108-0.353,0.222-0.705,0.334-1.057c0.004-0.011,0.007-0.021,0.031-0.023
	c0.114,0.355,0.232,0.711,0.343,1.067c0.019,0.062,0.052,0.08,0.144,0.079c0.356-0.003,0.711-0.001,1.081-0.001
	c-0.039,0.064-0.117,0.102-0.179,0.147c-0.243,0.181-0.492,0.359-0.739,0.539c-0.034,0.026-0.045,0.054-0.031,0.093
	c0.114,0.346,0.225,0.693,0.336,1.041c0.007,0.021,0.016,0.04,0,0.064c-0.3-0.222-0.598-0.442-0.893-0.663
	c-0.056-0.041-0.095-0.034-0.148,0.006c-0.293,0.22-0.59,0.437-0.909,0.671c0.051-0.161,0.092-0.3,0.137-0.439
	c0.074-0.228,0.147-0.455,0.225-0.683c0.013-0.041-0.006-0.069-0.047-0.098c-0.294-0.212-0.588-0.426-0.881-0.639
	C26.653,8.435,26.65,8.421,26.641,8.404z"/>
<path fill-rule="evenodd" clip-rule="evenodd" fill="#95A3C9" d="M24.571,16.139c-0.015,0-0.028,0-0.042,0
	c-0.003-0.017-0.017-0.041,0.025-0.038C24.581,16.103,24.575,16.124,24.571,16.139z"/>
<path fill-rule="evenodd" clip-rule="evenodd" fill="#CC222C" d="M24.572,16.779c0.096,0.307,0.194,0.612,0.287,0.919
	c0.016,0.05,0.063,0.039,0.105,0.039c0.277,0.001,0.555,0.001,0.831,0.001c0.039,0,0.077,0,0.141,0
	c-0.155,0.115-0.293,0.22-0.435,0.322c-0.119,0.087-0.239,0.174-0.364,0.258c-0.057,0.039-0.054,0.081-0.038,0.129
	c0.093,0.279,0.185,0.56,0.274,0.839c0.006,0.021,0.024,0.045-0.003,0.073c-0.206-0.15-0.412-0.298-0.613-0.448
	c-0.21-0.157-0.206-0.157-0.416-0.001c-0.201,0.151-0.407,0.299-0.634,0.442c0.039-0.123,0.077-0.246,0.116-0.369
	c0.058-0.185,0.116-0.368,0.182-0.552c0.017-0.048-0.003-0.082-0.045-0.112c-0.26-0.188-0.521-0.377-0.782-0.564
	c0.025-0.026,0.06-0.017,0.089-0.017c0.274-0.001,0.547-0.004,0.819,0.002c0.104,0.002,0.147-0.014,0.169-0.089
	c0.083-0.292,0.181-0.581,0.271-0.872C24.542,16.769,24.558,16.769,24.572,16.779z"/>
<path fill-rule="evenodd" clip-rule="evenodd" fill="#E58B93" d="M24.572,16.779c-0.015,0-0.03,0-0.045,0
	c-0.003-0.015-0.003-0.038,0.018-0.038C24.582,16.739,24.572,16.763,24.572,16.779z"/>
<path fill-rule="evenodd" clip-rule="evenodd" fill="#CC222C" d="M24.571,3.603c0.079,0.249,0.162,0.498,0.239,0.747
	c0.016,0.051,0.043,0.069,0.121,0.068c0.256-0.003,0.512-0.001,0.792-0.001c-0.213,0.156-0.404,0.303-0.606,0.442
	c-0.087,0.061-0.114,0.114-0.081,0.2c0.086,0.226,0.152,0.456,0.225,0.684c0.005,0.015,0,0.031,0,0.058
	c-0.183-0.134-0.356-0.26-0.527-0.388c-0.186-0.139-0.183-0.139-0.368,0.001C24.2,5.537,24.03,5.658,23.862,5.781
	c-0.038-0.021-0.023-0.039-0.018-0.055c0.077-0.241,0.153-0.482,0.234-0.723c0.015-0.044,0-0.071-0.045-0.104
	c-0.217-0.155-0.428-0.314-0.656-0.483c0.278,0,0.535-0.002,0.79,0.001c0.078,0.001,0.105-0.017,0.122-0.068
	c0.076-0.249,0.159-0.498,0.239-0.747C24.543,3.593,24.557,3.593,24.571,3.603z"/>
<path fill-rule="evenodd" clip-rule="evenodd" fill="#DC626D" d="M24.571,3.603c-0.015,0-0.028,0-0.042,0
	c-0.002-0.017-0.017-0.042,0.025-0.039C24.581,3.566,24.575,3.588,24.571,3.603z"/>
<path fill-rule="evenodd" clip-rule="evenodd" fill="#CC222C" d="M21.243,9.988c-0.125,0.091-0.228,0.169-0.333,0.246
	c-0.118,0.085-0.238,0.168-0.353,0.255c-0.029,0.022-0.042,0.048-0.029,0.086c0.084,0.243,0.16,0.487,0.238,0.73
	c0.006,0.022,0.024,0.045,0.003,0.069c-0.222-0.161-0.445-0.319-0.663-0.481c-0.04-0.031-0.048-0.032-0.09,0
	c-0.219,0.164-0.445,0.324-0.684,0.498c0.058-0.185,0.111-0.355,0.165-0.525c0.028-0.093,0.055-0.188,0.093-0.279
	c0.021-0.048,0-0.078-0.048-0.111c-0.206-0.146-0.407-0.294-0.61-0.442c-0.014-0.009-0.017-0.023-0.032-0.044
	c0.257,0,0.503-0.003,0.748,0.001c0.099,0.002,0.141-0.013,0.161-0.085c0.072-0.252,0.161-0.503,0.245-0.763
	c0.043,0.038,0.039,0.08,0.052,0.117c0.074,0.225,0.146,0.451,0.216,0.677c0.014,0.043,0.041,0.054,0.102,0.054
	C20.686,9.987,20.947,9.988,21.243,9.988z"/>
<path fill-rule="evenodd" clip-rule="evenodd" fill="#CC222C" d="M28.227,7.909c0.07,0.217,0.142,0.42,0.2,0.625
	c0.017,0.063,0.056,0.075,0.141,0.073c0.181-0.003,0.363-0.001,0.545-0.001c0.021,0,0.051-0.005,0.06,0.016
	c0.007,0.016-0.018,0.021-0.031,0.03c-0.156,0.113-0.312,0.227-0.468,0.34c-0.054,0.038-0.08,0.072-0.058,0.131
	c0.069,0.19,0.126,0.383,0.187,0.574c0.006,0.018,0.007,0.037,0.013,0.069c-0.177-0.129-0.349-0.245-0.501-0.37
	c-0.081-0.066-0.113-0.06-0.19,0.001c-0.153,0.125-0.324,0.239-0.51,0.374c0.049-0.158,0.091-0.296,0.135-0.435
	c0.023-0.073,0.037-0.147,0.073-0.217c0.029-0.056-0.005-0.09-0.053-0.125c-0.155-0.114-0.313-0.227-0.469-0.34
	c-0.015-0.011-0.046-0.016-0.033-0.037c0.012-0.02,0.04-0.012,0.061-0.012c0.19-0.001,0.38-0.002,0.57,0
	c0.069,0.001,0.096-0.014,0.108-0.06c0.06-0.203,0.126-0.405,0.19-0.607C28.198,7.934,28.207,7.928,28.227,7.909z"/>
</svg>
