<?xml version="1.0" encoding="utf-8"?>
<!-- Generator: Adobe Illustrator 16.0.0, SVG Export Plug-In . SVG Version: 6.00 Build 0)  -->
<!DOCTYPE svg PUBLIC "-//W3C//DTD SVG 1.1//EN" "http://www.w3.org/Graphics/SVG/1.1/DTD/svg11.dtd">
<svg version="1.1" id="Layer_1" xmlns="http://www.w3.org/2000/svg" xmlns:xlink="http://www.w3.org/1999/xlink" x="0px" y="0px"
	 width="32px" height="24px" viewBox="0 0 32 24" enable-background="new 0 0 32 24" xml:space="preserve">
<rect fill="#ED2E3B" width="32" height="12"/>
<rect y="12" fill="#FFFFFF" width="32" height="12"/>
<path fill="#FFFFFF" d="M12.029,6c0,2.492-2.096,4.512-4.681,4.512c-2.586,0-4.682-2.021-4.682-4.512
	c0-2.493,2.096-4.513,4.682-4.513C9.933,1.487,12.029,3.508,12.029,6z"/>
<path fill="#ED2E3B" d="M13.5,6c0,2.355-1.981,4.264-4.424,4.264S4.651,8.355,4.651,6c0-2.355,1.981-4.265,4.424-4.265
	C11.519,1.735,13.5,3.645,13.5,6z"/>
<path id="star" fill="#FFFFFF" d="M7.927,6.109l-0.635-0.47l-0.636,0.47L6.9,5.351L6.262,4.883L7.05,4.885l0.242-0.76l0.241,0.76
	L8.32,4.883L7.683,5.351L7.927,6.109z"/>
<g transform="translate(577.18853,0)">
	<path id="star_1_" fill="#FFFFFF" d="M-565.135,6.109l-0.635-0.47l-0.637,0.47l0.246-0.758l-0.639-0.468l0.787,0.002l0.242-0.76
		l0.242,0.76l0.787-0.002l-0.638,0.468L-565.135,6.109z"/>
</g>
<g transform="translate(288.88853,-214.21117)">
	<path id="star_2_" fill="#FFFFFF" d="M-279.932,222.491l-0.637-0.47l-0.635,0.47l0.245-0.758l-0.638-0.467l0.788,0.001l0.241-0.759
		l0.242,0.759l0.788-0.002l-0.638,0.468L-279.932,222.491z"/>
</g>
<g transform="translate(107.99953,342.74883)">
	<path id="star_3_" fill="#FFFFFF" d="M-96.684-334.468l-0.636-0.47l-0.636,0.47l0.245-0.758l-0.638-0.468l0.788,0.001l0.241-0.759
		l0.242,0.759l0.788-0.001l-0.638,0.467L-96.684-334.468z"/>
</g>
<g transform="translate(469.18853,342.74883)">
	<path id="star_4_" fill="#FFFFFF" d="M-459.097-338.435l-0.637-0.47l-0.636,0.47l0.245-0.758l-0.637-0.468l0.786,0.001l0.242-0.759
		l0.242,0.759l0.788-0.001l-0.638,0.467L-459.097-338.435z"/>
</g>
</svg>
