    <svg xmlns="http://www.w3.org/2000/svg" xmlnsXlink="http://www.w3.org/1999/xlink" version="1.1" id="Layer_1" x="0px" y="0px"  viewBox="0 0 150 150" enable-background="new 0 0 150 150" xmlSpace="preserve">
<g fill="currentColor">
	<path fillRule="evenodd" clipRule="evenodd" d="M4.27,129.066c0.107-7.487,2.263-14.505,5.157-21.315   c6.723-15.815,16.401-29.764,27.437-42.807c14.245-16.836,30.383-31.593,48.861-43.696C96.027,14.5,106.768,8.565,118.818,5.534   c3.697-0.929,7.572-1.431,11.385-1.563c9.371-0.327,15.625,5.714,16.052,15.077c0.283,6.191-1.152,12.08-3.17,17.844   c-4.371,12.487-11.077,23.725-18.76,34.402c-14.087,19.58-30.864,36.54-50.225,50.915c-11.644,8.645-23.938,16.19-37.768,20.892   c-6.159,2.094-12.467,3.614-19.047,2.669c-7.981-1.146-12.6-6.326-13.011-14.361C4.235,130.629,4.27,129.848,4.27,129.066z    M125.425,9.831c-3.265,0.667-6.604,1.09-9.782,2.045c-11.306,3.396-21.27,9.447-30.821,16.198   C66.986,40.682,51.357,55.678,37.509,72.526c-9.455,11.502-17.925,23.665-23.573,37.563c-2.11,5.193-3.698,10.534-3.502,16.237   c0.285,8.252,5.71,13.511,13.954,13.46c1.779-0.01,3.582-0.126,5.329-0.443c9.151-1.658,17.304-5.795,25.2-10.469   c13.515-8.002,25.624-17.844,36.924-28.696c15.24-14.635,28.936-30.534,39.306-49.067c4.016-7.176,7.52-14.602,8.589-22.885   c0.283-2.192,0.348-4.482,0.052-6.666C138.791,14.215,133.603,10.176,125.425,9.831z"/>
	<path fillRule="evenodd" clipRule="evenodd" d="M-0.015,116.523c0.375-6.043,0.48-12.118,1.181-18.123   c1.745-14.969,7.168-28.711,14.638-41.696c0.31-0.538,1.028-1.002,1.647-1.174c17.964-4.994,29.601-16.855,36.66-33.698   c0.343-0.817,0.681-1.696,0.735-2.563c0.145-2.344,1.517-3.497,3.466-4.571C70.381,8.045,83.025,2.979,96.753,1.189   c6.064-0.791,12.227-0.824,18.346-1.183c0.541-0.032,1.09,0.065,2.16,0.137c-0.749,0.336-1.038,0.51-1.351,0.599   C104.13,4.059,93.459,9.717,83.289,16.363C62.94,29.661,45.392,46.083,29.98,64.808C19.838,77.129,10.967,90.297,4.734,105.077   c-1.575,3.737-2.804,7.618-4.19,11.433C0.357,116.514,0.171,116.519-0.015,116.523z"/>
	<path fillRule="evenodd" clipRule="evenodd" d="M33.317,149.82c4.414-1.631,8.597-3,12.635-4.707   c11.37-4.805,21.749-11.331,31.584-18.725c20.807-15.643,38.813-34.028,53.642-55.443c7.842-11.324,14.52-23.277,18.293-36.655   c0.068-0.242,0.162-0.476,0.37-1.084c0.562,10.375-0.219,20.194-2.648,29.897c-2.718,10.862-7.217,20.955-12.755,30.624   c-0.29,0.506-0.916,1.024-1.469,1.143c-9.031,1.926-16.384,6.804-23.062,12.923c-7.56,6.927-12.807,15.231-15.261,25.245   c-0.126,0.516-0.589,1.09-1.055,1.361c-18.04,10.488-37.363,16.189-58.371,15.554C34.678,149.936,34.137,149.879,33.317,149.82z"/>
	<path fillRule="evenodd" clipRule="evenodd" d="M48.536,20.93C45.14,32.299,31.074,45.817,20.84,48.746   C24.486,41.003,41.276,24.14,48.536,20.93z"/>
	<path fillRule="evenodd" clipRule="evenodd" d="M129.223,101.686c-7.126,11.352-16.423,20.51-27.761,27.61   C106.995,116.368,116.277,107.191,129.223,101.686z"/>
	<path fillRule="evenodd" clipRule="evenodd" d="M105.117,29.784c10.573-0.174,15.316,4.409,15.348,12.279   c0.028,7.052-2.328,13.522-5.55,19.607c-12.302,23.234-30.108,41.04-53.443,53.199c-5.913,3.081-12.177,5.315-18.987,5.33   c-7.957,0.017-12.457-4.488-12.46-12.471c-0.002-6.516,2.168-12.489,4.941-18.247c6.855-14.232,16.754-26.141,28.389-36.678   c7.807-7.07,16.285-13.199,25.794-17.806C95.054,32.135,101.153,29.898,105.117,29.784z M80.58,80.14   c8.528-0.113,14.545-4.273,18.652-11.513c0.725-1.277,1.137-2.618,0.006-3.876c-1.077-1.199-2.35-0.842-3.706-0.436   c-1.479,0.442-3.033,0.876-4.556,0.885c-3.616,0.019-6.022-2.408-5.938-6.021c0.038-1.632,0.533-3.282,1.011-4.868   c0.392-1.298,0.43-2.433-0.62-3.371c-1.002-0.896-2.153-0.818-3.276-0.22c-5.947,3.165-10.21,7.694-11.559,14.51   c-0.298,1.506-0.375,3.057-0.558,4.608c-0.281,0.034-0.499,0.081-0.715,0.085c-8.446,0.162-14.205,4.512-18.18,11.651   c-0.671,1.207-0.965,2.427,0.033,3.571c0.984,1.129,2.201,1.047,3.526,0.585c1.203-0.418,2.452-0.801,3.71-0.955   c4.575-0.56,7.787,2.854,6.995,7.404c-0.198,1.146-0.546,2.274-0.924,3.376c-0.428,1.247-0.554,2.429,0.493,3.404   c1.104,1.029,2.337,0.85,3.563,0.192c5.33-2.857,9.297-6.921,10.99-12.845C80.089,84.352,80.229,82.278,80.58,80.14z"/>
	<path fillRule="evenodd" clipRule="evenodd" d="M124.944,51.132c0.214-3.535,0.723-7.146,0.593-10.735   c-0.323-8.967-6.012-14.996-14.938-15.647c-3.893-0.283-7.849,0.303-11.414,0.476c0.619-0.353,1.677-0.979,2.756-1.568   c6.287-3.433,12.744-6.479,19.858-7.732c2.11-0.371,4.357-0.454,6.475-0.171c3.659,0.489,5.871,2.958,6.235,6.625   c0.165,1.652,0.186,3.369-0.068,5.001C133.09,36.078,129.14,43.74,124.944,51.132z"/>
	<path fillRule="evenodd" clipRule="evenodd" d="M26.093,98.175c-1.068,4.417-1.669,8.533-1.107,12.737   c1.174,8.799,7.669,14.597,16.56,14.519c3.37-0.03,6.735-0.574,10.263-0.898c-2.814,1.479-5.521,3.015-8.325,4.352   c-5.654,2.695-11.431,5.063-17.789,5.478c-1.05,0.069-2.124,0.019-3.168-0.114c-3.684-0.471-5.946-2.693-6.533-6.344   c-0.718-4.456,0.308-8.746,1.924-12.763c2.2-5.466,4.949-10.71,7.472-16.047C25.5,98.858,25.71,98.668,26.093,98.175z"/>
	<path fillRule="evenodd" clipRule="evenodd" d="M90.83,70.752c-2.782,2.663-5.889,3.958-9.353,4.121   c-3.376,0.158-6.266-2.793-6.117-6.175c0.154-3.486,1.478-6.573,4.097-9.361C80.218,66.163,83.934,69.896,90.83,70.752z"/>
	<path fillRule="evenodd" clipRule="evenodd" d="M71.061,90.488c-1.294-7.191-4.391-10.257-11.496-11.3   c0.959-0.729,1.665-1.395,2.484-1.864c2.589-1.479,5.3-2.708,8.381-2.03c3.24,0.714,5.199,3.804,4.609,7.075   C74.5,85.361,73.45,88.115,71.061,90.488z"/>
</g>
</svg>