<svg xmlns="http://www.w3.org/2000/svg" xmlnsXlink="http://www.w3.org/1999/xlink" version="1.1" id="Layer_1" x="0px" y="0px" viewBox="0 0 150 150" enable-background="new 0 0 150 150" xmlSpace="preserve">
<g fill="currentColor">
	<path fillRule="evenodd" clipRule="evenodd" d="M108.258,45.272c3.662,4.601,7.305,9.155,10.896,13.747   c0.215,0.276,0.217,0.99,0.011,1.286c-6.802,9.745-10.007,20.836-11.704,32.37c-1.516,10.306-2.406,20.703-3.695,31.044   c-0.865,6.94-1.923,13.856-2.974,20.772c-0.08,0.527-0.704,1.236-1.221,1.396c-27.755,8.639-52.755,3.734-74.842-15.335   c-0.266-0.229-0.515-0.479-0.758-0.731c-0.065-0.068-0.088-0.18-0.086-0.178C51.912,101.617,79.913,73.617,108.258,45.272z"/>
	<path fillRule="evenodd" clipRule="evenodd" d="M104.606,41.757C76.32,70.04,48.317,98.039,20.241,126.113   c-3.547-3.715-6.75-7.849-9.391-12.385C-0.663,93.951-2.911,73.131,3.913,51.299c0.348-1.112,0.863-1.661,2.018-1.813   c8.185-1.08,16.346-2.35,24.547-3.274c13.006-1.466,26.091-2.349,38.807-5.752c7.442-1.991,14.511-4.818,20.875-9.252   c0.35-0.244,1.135-0.369,1.399-0.155C95.944,34.588,100.278,38.188,104.606,41.757z"/>
	<path fillRule="evenodd" clipRule="evenodd" d="M86.778,27.982c-4.734,3.22-9.65,5.356-14.787,7.027   c-8.327,2.709-16.934,4.029-25.587,5.077c-13.047,1.58-26.103,3.083-39.154,4.618c-0.196,0.023-0.395,0.032-0.747,0.06   c0.097-0.34,0.138-0.609,0.247-0.846c7.151-15.476,18.106-27.367,33.315-35.207c0.711-0.366,1.754-0.489,2.522-0.284   c14.835,3.954,28.848,9.832,41.85,18.042C85.154,26.923,85.862,27.39,86.778,27.982z"/>
	<path fillRule="evenodd" clipRule="evenodd" d="M122.668,63.613c2.995,5.458,5.966,10.479,8.559,15.687   c4.519,9.078,7.833,18.627,10.406,28.43c0.139,0.525,0.141,1.23-0.101,1.691c-7.892,15.104-19.556,26.302-34.939,33.626   c-0.176,0.083-0.369,0.126-0.723,0.246c0.355-2.397,0.759-4.662,1.019-6.942c0.91-8.002,1.788-16.008,2.646-24.016   c1.268-11.813,2.525-23.628,6.377-34.967C117.503,72.685,119.542,68.212,122.668,63.613z"/>
	<path fillRule="evenodd" clipRule="evenodd" d="M47.892,4.995c9.79-3.684,19.463-5.277,29.446-4.955   c6.829,0.22,13.515,1.337,20.056,3.339c0.965,0.295,1.427,0.713,1.683,1.779c1.696,7.082-0.66,12.745-5.813,17.546   c-2.403,2.238-2.355,2.283-5.092,0.476C76.404,15.403,63.629,9.812,50.176,5.696C49.561,5.508,48.946,5.319,47.892,4.995z"/>
	<path fillRule="evenodd" clipRule="evenodd" d="M144.954,101.79c-4.587-15.06-10.813-28.999-19.457-41.893   c3.656-3.955,7.29-7.906,12.921-8.641c2.342-0.306,4.79,0.125,7.181,0.332c0.383,0.033,0.916,0.589,1.044,1.007   c2.877,9.4,3.829,19.009,2.992,28.797c-0.558,6.495-1.93,12.819-4.104,18.966C145.402,100.721,145.244,101.074,144.954,101.79z"/>
	<path fillRule="evenodd" clipRule="evenodd" d="M111.429,42.17c6.13-6.128,12.245-12.244,18.454-18.451   c6.111,6.58,11.121,14.017,14.604,22.771c-4.344-0.291-8.558-0.373-12.182,1.847c-3.442,2.109-6.581,4.715-9.887,7.127   c-1.566-2.018-3.331-4.406-5.22-6.693C115.313,46.488,113.305,44.306,111.429,42.17z"/>
	<path fillRule="evenodd" clipRule="evenodd" d="M107.66,38.512c-4.28-3.663-8.558-7.323-12.963-11.093   c2.906-2.833,5.853-5.765,7.699-9.582c1.863-3.854,1.928-7.941,1.578-12.321c8.444,3.628,15.735,8.493,22.078,14.606   C119.866,26.308,113.756,32.417,107.66,38.512z"/>
</g>
</svg>