<svg xmlns="http://www.w3.org/2000/svg" xmlnsXlink="http://www.w3.org/1999/xlink" version="1.1" id="Layer_1" x="0px" y="0px" width="22px" height="22px" viewBox="0 0 150 150" enable-background="new 0 0 150 150" xmlSpace="preserve">
<g fill="currentColor">
	<path fillRule="evenodd" clipRule="evenodd" d="M75.089,69.634c11.399,0,22.806,0.251,34.195-0.075   c10.139-0.29,19.695,6.401,21.007,18.867c1.45,13.766,3.434,27.475,5.185,41.208c0.337,2.644,0.714,5.282,1.003,7.931   c0.548,5.038-1.657,9.259-5.854,11.322c-3.959,1.947-8.76,1.259-11.877-1.934c-1.1-1.126-2.003-2.565-2.62-4.021   c-2.483-5.864-4.82-11.789-7.208-17.693c-2.037-5.034-5.438-7.378-10.85-7.383c-15.373-0.014-30.746-0.015-46.119,0   c-5.384,0.006-8.804,2.371-10.838,7.4c-2.406,5.953-4.767,11.925-7.234,17.853c-2.655,6.379-9.801,8.814-15.428,5.233   c-3.98-2.532-5.476-6.325-4.892-10.927c2.023-15.964,4.125-31.918,6.11-47.887c0.508-4.09,1.172-8.081,3.641-11.51   c3.968-5.513,9.365-8.357,16.168-8.375C51.35,69.61,63.219,69.635,75.089,69.634z M37.547,99.101c0,2.718-0.032,5.218,0.011,7.716   c0.031,1.797,1.046,2.92,2.56,2.97c1.553,0.052,2.679-1.129,2.758-2.963c0.047-1.095,0.014-2.194,0.014-3.291   c0-1.438,0-2.876,0-4.429c0.752,0,1.267,0,1.781,0c2.038-0.002,4.077,0.046,6.112-0.022c1.703-0.057,2.852-1.262,2.795-2.764   c-0.054-1.453-1.183-2.48-2.826-2.544c-0.73-0.028-1.462-0.009-2.194-0.009c-1.853-0.001-3.707,0-5.671,0   c0-2.723,0.031-5.174-0.01-7.623c-0.033-1.947-1.006-3.035-2.619-3.065c-1.679-0.032-2.663,1.083-2.71,3.108   c-0.024,1.044-0.005,2.089-0.006,3.135c0,1.445,0,2.891,0,4.45c-2.798,0-5.352-0.026-7.904,0.01   c-1.55,0.021-2.554,0.883-2.759,2.24c-0.257,1.701,0.952,3.032,2.908,3.07C32.288,99.138,34.791,99.101,37.547,99.101z    M100.365,99.2c0.005-0.036,0.01-0.073,0.015-0.109c0.469,0,0.941,0.036,1.406-0.007c1.591-0.145,2.699-1.286,2.675-2.72   c-0.024-1.456-1.143-2.527-2.767-2.586c-0.987-0.035-1.986-0.062-2.965,0.042c-1.306,0.138-2.064,1.001-2.236,2.251   c-0.174,1.264,0.382,2.282,1.591,2.739C98.792,99.077,99.601,99.079,100.365,99.2z M119.181,99.18   c0.004-0.035,0.007-0.071,0.01-0.106c0.521,0,1.048,0.058,1.559-0.012c1.501-0.203,2.49-1.356,2.431-2.767   c-0.06-1.414-1.119-2.446-2.659-2.514c-0.987-0.043-1.983-0.063-2.964,0.027c-1.376,0.127-2.181,0.997-2.327,2.327   c-0.148,1.345,0.505,2.341,1.805,2.752C117.714,99.102,118.464,99.09,119.181,99.18z M112.51,105.736   c-0.019,0-0.038-0.001-0.058-0.002c0-0.468,0.038-0.939-0.007-1.403c-0.147-1.529-1.227-2.562-2.633-2.555   c-1.344,0.006-2.477,0.963-2.6,2.417c-0.101,1.182-0.1,2.405,0.094,3.569c0.227,1.355,1.265,2.042,2.599,1.999   c1.331-0.044,2.244-0.792,2.485-2.158C112.498,106.993,112.475,106.359,112.51,105.736z M112.509,86.975   c-0.015,0-0.03-0.001-0.045-0.001c0-0.416,0.027-0.833-0.004-1.247c-0.124-1.604-1.066-2.591-2.507-2.651   c-1.516-0.063-2.653,0.911-2.767,2.546c-0.078,1.131-0.08,2.301,0.126,3.409c0.249,1.339,1.247,2.014,2.612,1.962   c1.364-0.051,2.226-0.802,2.469-2.155C112.502,88.23,112.475,87.597,112.509,86.975z"/>
	<path fillRule="evenodd" clipRule="evenodd" d="M75.017,50.866c-13.121,0-26.243-0.016-39.364,0.029   c-1.189,0.004-1.713-0.331-2.085-1.48c-2.203-6.802-4.496-13.575-6.754-20.359c-0.222-0.667-0.579-1.269,0.194-1.951   c0.758-0.669,1.289-1.309,2.515-0.973c4.077,1.117,8.188,2.107,12.293,3.115c2.268,0.556,3.692-0.538,3.708-2.86   c0.027-4.078-0.022-8.155,0.045-12.232c0.009-0.536,0.396-1.337,0.825-1.526c0.516-0.227,1.428-0.156,1.882,0.176   c4.642,3.39,9.221,6.864,13.827,10.303c2.17,1.621,3.592,1.31,4.961-1.076c1.976-3.442,3.931-6.897,5.906-10.339   c0.868-1.511,3.243-1.527,4.104-0.029c2.003,3.487,3.985,6.986,5.993,10.47c1.315,2.283,2.728,2.574,4.861,0.982   c4.565-3.407,9.117-6.831,13.664-10.261c0.654-0.493,1.188-0.801,2.091-0.357c0.901,0.443,0.81,1.081,0.81,1.799   c-0.001,3.973-0.013,7.946,0.004,11.919c0.011,2.533,1.382,3.602,3.85,3c4.056-0.989,8.126-1.937,12.148-3.054   c1.243-0.345,1.756,0.272,2.514,0.938c0.767,0.672,0.43,1.277,0.207,1.949c-2.259,6.783-4.551,13.556-6.757,20.356   c-0.37,1.14-0.88,1.495-2.077,1.49C101.26,50.849,88.139,50.866,75.017,50.866z"/>
	<path fillRule="evenodd" clipRule="evenodd" d="M34.839,56.29c26.809,0,53.443,0,80.211,0c0,2.727,0,5.458,0,8.157   c-26.663,0-53.338,0-80.211,0c0-1.264,0-2.656,0-4.048C34.839,59.056,34.839,57.712,34.839,56.29z"/>
	<path fillRule="evenodd" clipRule="evenodd" d="M131.215,21.438c-0.004,1.479-1.242,2.708-2.697,2.677   c-1.444-0.032-2.681-1.336-2.631-2.774c0.049-1.409,1.229-2.548,2.651-2.561C130.06,18.766,131.219,19.917,131.215,21.438z"/>
	<path fillRule="evenodd" clipRule="evenodd" d="M21.51,24.114c-1.457,0.034-2.696-1.191-2.702-2.672   c-0.006-1.462,1.064-2.592,2.516-2.656c1.495-0.066,2.758,1.079,2.813,2.55C24.19,22.77,22.953,24.08,21.51,24.114z"/>
	<path fillRule="evenodd" clipRule="evenodd" d="M45.53,5.396c-0.018,1.471-1.278,2.693-2.729,2.646   c-1.455-0.046-2.664-1.346-2.6-2.793c0.063-1.423,1.228-2.527,2.669-2.529C44.389,2.717,45.548,3.883,45.53,5.396z"/>
	<path fillRule="evenodd" clipRule="evenodd" d="M109.824,5.303c0.034,1.444-1.211,2.731-2.655,2.744   c-1.39,0.012-2.604-1.147-2.671-2.549c-0.073-1.521,1.036-2.725,2.553-2.772C108.565,2.678,109.789,3.814,109.824,5.303z"/>
	<path fillRule="evenodd" clipRule="evenodd" d="M77.668,2.607c0.04,1.495-1.129,2.709-2.625,2.727   c-1.498,0.017-2.696-1.168-2.692-2.663c0.003-1.42,1.136-2.604,2.55-2.668C76.361-0.063,77.629,1.129,77.668,2.607z"/>
</g>
</svg>