  <svg xmlns="http://www.w3.org/2000/svg" xmlnsXlink="http://www.w3.org/1999/xlink" version="1.1" id="Layer_1" x="0px" y="0px" width="22px" height="22px" viewBox="0 0 150 150" enable-background="new 0 0 150 150" xmlSpace="preserve">
<g fill="currentColor">
	<path fillRule="evenodd" clipRule="evenodd" d="M116.884,30.905c1.171,0,2.222-0.06,3.264,0.01   c6.27,0.423,11.222,5.113,11.458,11.417c0.278,7.466,0.168,14.949,0.102,22.423c-0.016,1.717,0.268,2.587,2.137,3.171   c5.515,1.725,9.047,6.745,9.096,12.529c0.05,5.746,0.095,11.495-0.012,17.239c-0.138,7.438-2.548,14.114-7.245,19.903   c-2.285,2.814-4.649,5.568-7.072,8.264c-1.112,1.238-1.629,2.517-1.593,4.205c0.1,4.74,0.063,9.484,0.052,14.228   c-0.01,3.957-1.781,5.711-5.731,5.706c-12.722-0.02-25.442-0.045-38.162-0.073c-3.888-0.009-5.62-1.741-5.621-5.617   c-0.003-5.133-0.015-10.266,0.021-15.399c0.01-1.42-0.366-2.561-1.455-3.559c-1.809-1.657-3.42-3.533-5.269-5.139   c-1.968-1.711-2.85-3.816-2.865-6.331c-0.044-7.476-0.115-14.952-0.041-22.427c0.031-3.251,2.668-5.891,5.925-6.212   c1.272-0.125,2.563-0.073,3.846-0.081c3.471-0.021,4.521-1.049,4.521-4.485c0.003-11.716,0-23.433,0.003-35.15   c0-0.668-0.015-1.343,0.055-2.006c0.229-2.158,1.866-3.715,3.974-3.822c2.08-0.105,3.876,1.31,4.328,3.424   c0.069,0.326,0.072,0.665,0.119,0.996c0.248,1.752,1.634,3.048,3.23,3.027c1.666-0.022,3.112-1.422,3.146-3.28   c0.07-3.904-0.04-7.813,0.069-11.715c0.052-1.825,0.229-3.698,0.713-5.448c1.472-5.319,4.598-7.318,10.092-6.695   c1.741,0.198,3.514,0.038,4.925,1.565c1.75,1.894,3.117,3.928,3.601,6.481C116.666,28.979,116.752,29.924,116.884,30.905z"/>
	<path fillRule="evenodd" clipRule="evenodd" d="M69.871,0.392c-1.25,7.999-3.955,15.112-8.093,21.621   C50.866,39.188,35.971,51.735,17.249,59.684c-3.058,1.297-6.313,2.125-9.804,3.278C5.531,45.999,9.861,31.208,21.01,18.743   C33.964,4.261,50.371-1.649,69.871,0.392z"/>
	<path fillRule="evenodd" clipRule="evenodd" d="M79.059,2.552C86.97,5.013,93.758,8.993,99.902,14.54   c-3.605,1.876-5.994,4.636-7.486,8.201c-1.469,3.514-1.881,7.197-1.696,11.175c-0.85-0.177-1.523-0.333-2.205-0.456   c-6.682-1.216-12.535,3.507-12.702,10.367c-0.111,4.573-0.085,9.152,0.004,13.727c0.027,1.398-0.481,2.012-1.718,2.588   c-13.159,6.133-26.815,10.782-41.131,13.203c-6.463,1.093-13.062,1.436-19.613,1.944c-2.995,0.232-3.012,0.039-3.704-3.337   c17.071-4.273,31.521-13.264,44.103-25.365C66.396,34.423,75.89,20.362,79.059,2.552z"/>
	<path fillRule="evenodd" clipRule="evenodd" d="M75.773,69.666c0,2.958-0.01,5.516,0.004,8.073   c0.008,1.179-0.854,0.935-1.536,0.972c-4.753,0.265-8.38,2.437-10.908,6.45c-1.352,2.143-1.847,4.518-1.838,7.026   c0.021,5.58,0.027,11.159,0.039,16.739c0.001,0.598,0,1.197,0,1.756C47.892,113.265,20.454,97.73,15.62,84.74   c10.438-0.327,20.623-2.103,30.674-4.705C56.284,77.449,65.989,74.025,75.773,69.666z"/>
</g>
</svg>