  <svg xmlns="http://www.w3.org/2000/svg" xmlnsXlink="http://www.w3.org/1999/xlink" version="1.1" id="Layer_1" x="0px" y="0px" width="22px" height="22px" viewBox="0 0 150 150" enable-background="new 0 0 150 150" xmlSpace="preserve">
<g fill="currentColor">
	<path fillRule="evenodd" clipRule="evenodd" d="M112.352,71.747c0,9.048,0,17.815,0,26.661c-22.028,0-43.847,0-65.862,0   c0.151-4.987,1.804-9.236,5.242-12.693c11.672-11.735,23.39-23.425,35.094-35.129C97.11,40.3,107.399,30.019,117.689,19.739   c0.347-0.347,0.721-0.667,1.326-1.222c2.961,3.023,5.853,6.017,8.791,8.967c6.684,6.712,13.387,13.408,20.09,20.102   c2.736,2.732,2.755,5.051,0.049,7.754c-7.373,7.364-14.743,14.731-22.111,22.102c-2.615,2.615-5.015,2.589-7.632-0.072   c-1.719-1.747-3.465-3.469-5.202-5.199C112.923,72.094,112.817,72.048,112.352,71.747z"/>
	<path fillRule="evenodd" clipRule="evenodd" d="M66.753,107.397c-2.863,4.299-5.547,8.329-8.229,12.359   c-1.977,2.968-3.998,5.909-5.911,8.917c-1.262,1.985-0.882,4.375,0.751,5.773c1.535,1.317,3.948,1.375,5.558,0.072   c0.465-0.377,0.853-0.879,1.19-1.382c4.62-6.899,9.224-13.809,13.833-20.715c0.302-0.451,0.625-0.887,1.094-1.55   c1.926,2.87,3.748,5.572,5.558,8.283c3.126,4.68,6.237,9.371,9.369,14.046c1.542,2.301,4.081,2.935,6.229,1.596   c2.083-1.299,2.628-4.02,1.107-6.333c-4.255-6.473-8.575-12.901-12.869-19.348c-0.333-0.501-0.656-1.008-1.119-1.719   c0.707-0.058,1.184-0.13,1.661-0.131c9.477-0.006,18.952,0.016,28.428-0.031c1.191-0.005,1.746,0.321,2.101,1.513   c3.456,11.581,6.985,23.14,10.477,34.71c1.204,3.99-0.638,6.486-4.768,6.486c-30.769,0.004-61.538-0.041-92.307,0.058   c-3.736,0.012-6.091-2.892-4.893-6.643c3.677-11.512,7.076-23.112,10.551-34.688c0.294-0.982,0.687-1.442,1.817-1.437   c9.644,0.046,19.287,0.026,28.93,0.031C65.689,107.265,66.065,107.332,66.753,107.397z"/>
	<path fillRule="evenodd" clipRule="evenodd" d="M112.725,12.354c-4.197,4.173-8.231,8.166-12.245,12.178   c-18.167,18.161-36.327,36.33-54.497,54.49c-4.179,4.176-6.901,9.114-8.13,14.982c-0.049-0.38-0.142-0.761-0.143-1.142   c-0.006-10.366,0.01-20.732-0.019-31.098c-0.006-1.908,0.668-3.384,2.025-4.738C58.065,38.727,76.379,20.395,94.701,2.068   c2.66-2.661,5.003-2.675,7.631-0.049C105.721,5.403,109.123,8.774,112.725,12.354z"/>
	<path fillRule="evenodd" clipRule="evenodd" d="M31.129,18.753c5.745,5.756,11.401,11.424,17.159,17.193   c-0.257,0.296-0.551,0.681-0.891,1.021c-4.685,4.695-9.342,9.417-14.077,14.062c-2.954,2.897-4.421,6.334-4.394,10.467   c0.036,5.294,0.011,10.59,0.004,15.885c0,0.598-0.049,1.197-0.076,1.816c-1.698,0.406-2.988-0.119-4.067-1.195   c-7.735-7.713-15.47-15.428-23.172-23.174C-0.426,52.774-0.5,50.28,1.48,48.29c9.709-9.758,19.463-19.472,29.203-29.199   C30.799,18.975,30.946,18.89,31.129,18.753z"/>
	<path fillRule="evenodd" clipRule="evenodd" d="M68.632,15.608c-0.215,0.255-0.44,0.561-0.704,0.828   c-4.347,4.387-8.698,8.769-12.977,13.08C49.114,23.67,43.42,17.97,37.5,12.042c2.862-2.798,5.839-5.707,8.814-8.62   c0.717-0.702,1.391-1.449,2.138-2.116c1.76-1.568,4.133-1.824,5.78-0.22C59.092,5.823,63.8,10.714,68.632,15.608z"/>
</g>
</svg>