<svg xmlns="http://www.w3.org/2000/svg" xmlnsXlink="http://www.w3.org/1999/xlink" version="1.1" id="Layer_1" x="0px" y="0px" width="22px" height="22px" viewBox="0 0 150 150" enable-background="new 0 0 150 150" xmlSpace="preserve">
<g fill="currentColor">
	<path d="M133.699,76.964c-2.391-1.169-4.752-2.423-7.056-3.753c-6.13-3.539-11.865-7.635-17.23-12.23   c-3.366-2.882-6.646-5.852-9.824-8.928c-5.518-5.335-10.48-11.159-14.854-17.464c-2.974-4.271-5.619-8.717-7.872-13.403   c-0.714-1.48-1.465-2.941-2.063-4.464c-0.918-2.322-1.728-4.687-2.558-7.044c-0.117-0.339-0.227-0.412-0.547-0.27   c-1.217,0.514-2.479,0.94-3.652,1.523c-3.41,1.687-6.821,3.349-10.159,5.178c-6.225,3.433-12.084,7.456-17.521,12.063   c-2.879,2.438-5.729,4.945-8.382,7.627c-2.938,2.977-5.779,6.067-8.396,9.329c-2.464,3.072-4.592,6.425-6.822,9.679   c-0.35,0.492-0.51,1.097-0.765,1.651c0.321,1.454,0.634,2.908,0.955,4.366c0.072,0.186,0.146,0.365,0.204,0.558   c0.35,1.195,0.612,2.42,1.05,3.575c0.786,2.106,1.581,4.202,2.521,6.231c1.239,2.649,2.55,5.277,3.972,7.838   c3.156,5.649,6.873,10.94,10.962,15.955c4.234,5.189,8.563,10.294,13.709,14.62c3.471,2.927,7.005,5.802,10.598,8.575   c2.144,1.666,4.432,3.159,6.72,4.621c2.245,1.44,4.534,2.835,6.888,4.075c2.456,1.293,5,2.427,7.559,3.509   c1.88,0.797,3.826,1.491,5.787,2.074c1.981,0.59,4.017,1.009,6.035,1.465c0.815,0.186,1.574,0.116,2.368-0.383   c3.491-2.187,6.888-4.493,10.124-7.044c6.429-5.043,12.128-10.801,17.296-17.113c3.097-3.791,5.983-7.74,8.57-11.899   c1.334-2.131,2.596-4.311,3.849-6.497c0.765-1.331,1.45-2.712,2.149-4.079c0.409-0.805,0.802-1.618,1.188-2.438   c0.62-1.337,1.218-2.675,1.815-4.016c0.138-0.313,0.102-0.547-0.284-0.71C137.912,78.841,135.762,77.981,133.699,76.964z    M75.537,28.194c-0.247,0.276-0.583,0.506-0.903,0.685c-2.828,1.552-5.671,3.076-8.506,4.628c-0.699,0.386-1.349,0.875-2.15,1.396   c0.977,1.039,1.925,2.044,2.857,3.069c0.452,0.492,0.831,1.013,0.539,1.76c-0.204,0.543-0.714,0.783-1.275,0.598   c-0.999-0.343-1.698-1.083-2.384-1.822c-0.671-0.707-1.282-1.479-1.967-2.285c-1.604,1.075-3.222,2.157-4.956,3.323   c0.822,0.933,1.603,1.812,2.383,2.701c0.364,0.419,0.707,0.853,1.057,1.283c0.422,0.525,0.255,1.046-0.102,1.487   c-0.313,0.372-1.065,0.335-1.597-0.014c-1.378-0.911-2.427-2.136-3.382-3.448c-0.32-0.441-0.532-0.456-0.947-0.135   c-1.261,0.999-2.559,1.96-3.972,3.029c1.077,1.18,2.143,2.292,3.141,3.447c0.292,0.328,0.576,0.769,0.612,1.181   c0.109,1.046-0.547,1.486-1.523,1.097c-0.371-0.149-0.743-0.365-1.021-0.642c-1.078-1.089-2.113-2.215-3.235-3.411   c-1.283,1.111-2.661,2.307-4.147,3.597c1.145,1.253,2.296,2.479,3.396,3.753c0.299,0.343,0.459,0.824,0.591,1.261   c0.225,0.788-0.642,1.509-1.546,0.955c-0.83-0.507-1.597-1.163-2.288-1.855c-0.714-0.703-1.298-1.523-1.939-2.299   c-1.318,1.253-2.652,2.536-4.008,3.826c0.961,1.545,2.112,2.77,3.301,3.972c0.284,0.285,0.46,0.678,0.679,1.031   c0.291,0.485,0.131,0.984-0.248,1.236c-0.292,0.204-0.817,0.211-1.188,0.113c-0.386-0.095-0.795-0.35-1.07-0.642   c-1.123-1.133-2.188-2.314-3.339-3.524c-0.919,1.13-1.925,2.333-2.887,3.561c-0.859,1.068-0.859,1.104,0.015,2.15   c0.729,0.867,1.546,1.665,2.288,2.514c0.233,0.277,0.431,0.612,0.584,0.952c0.233,0.499,0.233,0.998-0.255,1.348   c-0.475,0.328-1.028,0.284-1.458-0.044c-0.714-0.547-1.407-1.145-2.033-1.778c-0.569-0.55-1.035-1.188-1.589-1.848   c-0.664,1.039-1.335,2.044-1.946,3.079c-0.423,0.725-0.809,1.487-1.159,2.256c-0.43,0.933-1.027,1.126-1.895,0.834   c-0.831-0.284-1.253-1.319-0.831-2.088c1.101-1.964,2.202-3.95,3.47-5.805c0.598-0.889,0.583-1.523,0.174-2.427   c-0.567-1.231-1.057-2.515-0.976-3.924c0.043-0.638,0.62-1.217,1.239-1.217c0.583-0.008,0.823,0.393,0.976,1.133   c0.197,1.017,0.54,2,0.86,3.119c1.341-1.603,2.565-3.054,3.747-4.53c0.131-0.164,0.087-0.55,0.006-0.805   c-0.269-0.926-0.626-1.829-0.896-2.755c-0.204-0.7-0.277-1.417,0.204-2.066c0.284-0.382,0.691-0.71,1.122-0.484   c0.336,0.171,0.612,0.604,0.743,0.984c0.292,0.904,0.481,1.836,0.729,2.872c0.247-0.171,0.379-0.244,0.487-0.35   c1.102-1.104,2.202-2.201,3.273-3.334c0.146-0.157,0.203-0.506,0.138-0.725c-0.313-1.042-0.722-2.066-1.012-3.12   c-0.19-0.707-0.212-1.454,0.422-2.037c0.627-0.568,1.313-0.419,1.574,0.39c0.299,0.941,0.562,1.895,0.846,2.843   c0.052,0.179,0.146,0.35,0.248,0.565c1.406-1.213,2.769-2.395,4.104-3.535c-0.504-1.56-1.335-2.977-1.291-4.628   c0-0.39,0.219-0.867,0.496-1.133c0.24-0.233,0.758-0.397,1.063-0.292c0.263,0.087,0.481,0.543,0.584,0.889   c0.364,1.155,0.67,2.333,1.035,3.626c1.61-1.21,3.091-2.322,4.481-3.36c-0.444-1.454-0.882-2.85-1.304-4.253   c-0.204-0.704,0.291-1.8,0.925-2.059c0.387-0.164,1.043,0.229,1.195,0.729c0.24,0.853,0.445,1.716,0.707,2.562   c0.161,0.507,0.395,0.984,0.605,1.523c1.421-0.918,2.769-1.793,4.118-2.66c1.05-0.678,0.976-0.634,0.48-1.811   c-0.466-1.097-0.802-2.263-1.021-3.426c-0.088-0.441,0.263-1.024,0.569-1.439c0.159-0.226,0.728-0.405,0.933-0.284   c0.32,0.186,0.612,0.605,0.744,0.977c0.232,0.671,0.299,1.403,0.523,2.074c0.219,0.682,0.555,1.315,0.853,2.008   c1.458-0.805,2.851-1.618,4.278-2.365c2.157-1.133,4.329-2.23,6.501-3.327c0.591-0.292,1.204-0.427,1.867-0.19   C75.858,26.714,76.12,27.553,75.537,28.194z"/>
	<polygon fill="#DDDCDC" points="31.063,64.396 31.063,64.399 31.063,64.396  "/>
	<path d="M149.96,30.861c-0.029-1.425-0.153-2.842-0.233-4.26c-0.044-0.904-0.044-1.808-0.139-2.7   c-0.16-1.458-0.364-2.905-0.591-4.352c-0.248-1.545-0.531-3.083-0.802-4.621c-0.138-0.784-0.284-1.56-0.423-2.336   c-0.247-0.798-0.487-1.589-0.75-2.38c-0.146-0.383-0.263-0.787-0.467-1.137c-0.59-1.028-1.107-2.128-1.844-3.043   c-1.349-1.659-3.243-2.519-5.298-2.97c-2.29-0.518-4.6-0.973-6.91-1.399c-1.618-0.288-3.251-0.536-4.884-0.729   c-1.457-0.179-2.944-0.284-4.409-0.357c-2.077-0.106-4.147-0.183-6.225-0.204c-1.837-0.022-3.681-0.007-5.517,0.091   c-2.07,0.105-4.141,0.298-6.218,0.477c-0.729,0.059-1.465,0.164-2.2,0.27c-1.058,0.139-2.129,0.292-3.186,0.452   c-1.662,0.262-3.316,0.51-4.964,0.816c-1.684,0.321-3.366,0.699-5.065,1.061c0.016,0.142,0,0.288,0.059,0.408   c1.079,2.413,2.1,4.851,3.28,7.212c1.021,2.037,2.164,4.012,3.366,5.955c4.65,7.529,10.233,14.343,16.422,20.652   c3.651,3.717,7.675,7.044,11.808,10.222c2.732,2.106,5.532,4.15,8.396,6.093c2.427,1.655,4.956,3.17,7.492,4.657   c1.888,1.104,3.87,2.052,5.824,3.072c0.072-0.142,0.168-0.251,0.189-0.379c0.334-1.567,0.699-3.134,0.977-4.708   c0.444-2.384,0.853-4.778,1.225-7.176c0.291-1.895,0.539-3.804,0.714-5.721c0.19-2.03,0.321-4.067,0.379-6.115   C150.025,35.432,149.996,33.146,149.96,30.861z"/>
	<path d="M58.657,138.232c-4.424-2.672-8.644-5.643-12.697-8.874c-6.121-4.891-11.894-10.175-17.156-15.973   c-2.543-2.792-4.971-5.685-7.296-8.663c-4.555-5.86-8.447-12.146-11.421-18.964c-0.903-2.084-1.721-4.206-2.522-6.323   c-0.422-1.126-0.742-2.292-1.165-3.589c-0.117,0.298-0.189,0.448-0.248,0.612c-0.831,2.798-1.691,5.59-2.479,8.396   c-0.452,1.567-0.823,3.156-1.151,4.752c-0.378,1.8-0.685,3.623-0.991,5.441c-0.262,1.56-0.51,3.127-0.714,4.697   c-0.189,1.385-0.292,2.781-0.424,4.169c-0.028,0.502-0.058,1.002-0.101,1.501c-0.016,0.106-0.03,0.208-0.045,0.313   c-0.064,0.82-0.123,1.651-0.188,2.478C0.037,109.511,0,110.82,0,112.125c0.015,1.865,0,3.739,0.095,5.612   c0.109,2.172,0.262,4.351,0.502,6.516c0.154,1.461,0.438,2.919,0.773,4.351c0.306,1.338,0.729,2.65,1.145,3.954   c0.619,1.957,1.385,3.878,2.5,5.598c1.676,2.605,3.95,4.683,6.705,6.057c2.033,1.013,4.264,1.662,6.45,2.339   c1.763,0.548,3.579,0.934,5.387,1.324c1.399,0.306,2.813,0.561,4.228,0.754c1.632,0.223,3.279,0.379,4.94,0.514   c2.318,0.186,4.636,0.404,6.953,0.456c3.587,0.083,7.172,0.044,10.743-0.335c1.69-0.187,3.411-0.187,5.096-0.398   c2.112-0.251,4.205-0.586,6.304-0.961c1.99-0.351,3.958-0.777,5.934-1.225c1.763-0.401,3.513-0.887,5.37-1.356   c-1.056-0.44-2.032-0.838-2.995-1.239C66.165,142.426,62.338,140.462,58.657,138.232z"/>
	<path d="M135.842,60.358c-0.306-0.178-0.619-0.357-0.925-0.536c-0.168-0.105-0.35-0.208-0.518-0.313l-0.948-0.605   c-0.102-0.073-0.204-0.156-0.306-0.229c-0.875-0.576-1.75-1.144-2.617-1.72c-0.327-0.186-0.671-0.35-0.976-0.572   c-2.573-1.888-5.212-3.681-7.675-5.704c-3.71-3.036-7.413-6.104-10.89-9.402c-2.748-2.598-5.284-5.455-7.696-8.382   c-2.93-3.567-5.744-7.256-8.396-11.039c-1.793-2.54-3.229-5.324-4.767-8.032c-0.743-1.305-1.429-2.664-2.056-4.038   c-0.759-1.709-1.414-3.455-2.172-5.292c-3.338,1.068-6.697,2.135-10.051,3.203c0.014,0.259-0.015,0.408,0.029,0.536   c0.838,2.314,1.61,4.665,2.543,6.942c0.831,2.029,1.794,4.001,2.785,5.955c2.689,5.342,5.903,10.375,9.577,15.09   c1.901,2.449,3.877,4.836,5.925,7.157c3.666,4.166,7.653,8.01,11.793,11.687c4.65,4.136,9.512,8.01,14.715,11.399   c2.771,1.79,5.599,3.477,8.47,5.081c2.237,1.246,4.577,2.321,6.88,3.425c0.918,0.441,1.902,0.769,2.851,1.159   c0.371,0.142,0.634,0.127,0.779-0.335c0.256-0.802,0.598-1.582,0.86-2.391c0.686-2.074,1.371-4.147,2.041-6.224   c0.16-0.507,0.276-1.021,0.407-1.469c-2.609-1.367-5.146-2.686-7.652-4.045C137.146,61.291,136.506,60.799,135.842,60.358z"/>
	<path d="M76.66,132.725c-4.585-2.063-8.973-4.501-13.148-7.307c-2.522-1.695-5-3.466-7.464-5.262   c-1.64-1.203-3.215-2.493-4.795-3.776c-5.233-4.234-10.074-8.859-14.475-13.957c-5.409-6.261-10.453-12.776-14.592-19.948   c-1.721-2.971-3.288-6.039-4.832-9.1c-0.693-1.381-1.211-2.857-1.757-4.314c-0.555-1.454-1.064-2.916-1.546-4.395   c-0.393-1.155-0.714-2.343-1.078-3.568c-0.35,0.605-0.7,1.141-0.992,1.709c-0.896,1.8-1.793,3.597-2.66,5.419   c-0.211,0.448-0.518,1.006-0.422,1.44c0.473,2.077,1.027,4.136,1.633,6.188c0.946,3.218,2.149,6.352,3.621,9.366   c1.095,2.234,2.202,4.464,3.426,6.622c3.411,6.024,7.521,11.538,12.1,16.716c4.257,4.822,8.833,9.337,13.702,13.539   c2.113,1.83,4.242,3.637,6.458,5.317c2.667,2.012,5.415,3.939,8.185,5.813c2.908,1.972,5.962,3.703,9.125,5.208   c1.895,0.903,3.812,1.778,5.751,2.562c1.654,0.67,3.381,1.188,5.065,1.782c1.005,0.36,1.931,0.354,2.951-0.124   c3.024-1.436,5.875-3.145,8.645-4.992c0.116-0.076,0.196-0.183,0.284-0.263c-2.311-0.703-4.6-1.309-6.837-2.092   C80.858,134.546,78.744,133.658,76.66,132.725z"/>
</g>
</svg>