<svg xmlns="http://www.w3.org/2000/svg" xmlnsXlink="http://www.w3.org/1999/xlink" version="1.1" id="Layer_1" x="0px" y="0px" width="22px" height="22px" viewBox="0 0 150 150" enable-background="new 0 0 150 150" xmlSpace="preserve">
<g fill="currentColor">
	<path fillRule="evenodd" clipRule="evenodd" d="M82.369,141.365c-1.327-0.426-2.571-0.797-3.796-1.225   c-14.614-5.095-27.527-12.973-38.831-23.55c-12.704-11.886-22.516-25.71-28.689-42.044C8.45,67.664,8.28,67.61,11.735,61.181   C23.988,38.38,41.616,21.126,65.016,9.867c1.743-0.839,3.275-0.916,5.131-0.286c15.047,5.108,28.355,13.065,39.985,23.896   c14.175,13.2,24.633,28.775,30.619,47.271c0.407,1.259,0.403,2.32-0.181,3.543c-12.224,25.619-31.173,44.463-56.847,56.554   C83.271,141.058,82.788,141.206,82.369,141.365z M48.086,71.94c-1.023-1.12-1.974-2.233-3.004-3.268   c-1.225-1.229-2.739-1.784-4.478-1.534c-2.136,0.307-3.668,1.454-4.383,3.513c-0.729,2.103-0.331,4.043,1.232,5.64   c1.526,1.56,3.14,3.034,4.604,4.438c-1.608,2.988-3.178,5.558-4.377,8.29c-0.547,1.246-0.692,2.88-0.428,4.221   c0.381,1.936,1.774,3.302,3.863,3.537c2.479,0.278,4.628-0.417,5.96-2.693c1.045-1.789,1.98-3.641,3.161-5.828   c0.789,0.882,1.387,1.624,2.061,2.288c2.438,2.406,5.831,2.523,8.005,0.307c2.128-2.168,2.033-5.516-0.327-7.877   c-1.271-1.273-2.695-2.395-4.156-3.678c2.584-3.146,4.826-5.876,7.396-9.005c1.671,1.831,3.124,3.483,4.646,5.071   c1.338,1.396,3.011,2.003,4.933,1.629c2.047-0.397,3.509-1.601,4.127-3.603c0.63-2.034,0.23-3.93-1.272-5.5   c-1.583-1.653-3.204-3.272-4.952-5.054c2.919-2.376,5.659-4.607,8.589-6.991c1.514,1.596,2.805,3.107,4.253,4.447   c2.27,2.1,5.565,1.961,7.625-0.193c2.018-2.11,2.033-5.281-0.051-7.496c-0.724-0.769-1.636-1.358-2.687-2.213   c2.039-1.086,3.554-1.832,5.003-2.688c0.812-0.479,1.659-1.024,2.238-1.743c1.561-1.937,1.448-4.747-0.115-6.758   c-1.518-1.953-4.254-2.692-6.554-1.532c-2.911,1.467-5.728,3.121-8.823,4.826c-1.312-1.383-2.634-2.851-4.035-4.24   c-2.447-2.428-5.795-2.523-7.991-0.286c-2.193,2.234-2.094,5.436,0.315,7.861c0.947,0.953,2.023,1.777,3.092,2.704   c-3.079,2.579-5.806,4.862-8.692,7.28c-0.841-0.884-1.609-1.785-2.475-2.581c-2.281-2.102-5.541-2.029-7.627,0.119   c-2.032,2.095-2.066,5.309,0.008,7.497c0.803,0.849,1.781,1.53,2.67,2.28C52.879,66.197,50.604,68.923,48.086,71.94z"/>
	<path fillRule="evenodd" clipRule="evenodd" d="M3.162,84.198c13.503,28.271,34.291,48.96,62.334,62.794   c-3.063,0.578-6.11,1.241-9.188,1.718c-11.266,1.743-22.517,1.48-33.758-0.337c-11.08-1.791-19.181-10.075-21.114-21.778   C-0.81,112.997-0.44,99.471,2.683,86.034C2.807,85.499,2.959,84.97,3.162,84.198z"/>
	<path fillRule="evenodd" clipRule="evenodd" d="M146.831,66.019C133.408,37.468,112.567,16.772,83.917,3.15   c3.83-0.713,7.157-1.455,10.521-1.937c10.985-1.573,21.969-1.498,32.901,0.477c11.612,2.098,19.336,10.094,21.245,21.836   c2.221,13.657,1.854,27.232-1.287,40.72C147.184,64.738,147.042,65.224,146.831,66.019z"/>
</g>
</svg>